<svg xmlns="http://www.w3.org/2000/svg" viewBox="0 0 34.803 51.012">
  <defs>
    <style>
      .cls-1 {
        fill: #294d97;
      }
    </style>
  </defs>
  <g id="Group_868" data-name="Group 868" transform="translate(-375 -2537.016)">
    <path id="Path_1146" data-name="Path 1146" class="cls-1" d="M30.71,36.883h0l-16.209,0a.779.779,0,0,1-.774-.686A9.555,9.555,0,0,0,11.394,30.7a.027.027,0,0,0-.006-.008,17.4,17.4,0,1,1,22.364.064,9.583,9.583,0,0,0-2.27,5.437A.774.774,0,0,1,30.71,36.883ZM15.176,35.321l14.858,0a10.726,10.726,0,0,1,2.659-5.7,15.849,15.849,0,1,0-20.233-.061.77.77,0,0,1,.125.132A10.764,10.764,0,0,1,15.176,35.321Z" transform="translate(369.794 2537.016)"/>
    <path id="Path_1147" data-name="Path 1147" class="cls-1" d="M27.664,27.275H11.455a.778.778,0,1,1,0-1.557H27.664a.778.778,0,1,1,0,1.557Z" transform="translate(372.839 2551.331)"/>
    <path id="Path_1148" data-name="Path 1148" class="cls-1" d="M27.664,30.3H11.455a.778.778,0,1,1,0-1.557H27.664a.778.778,0,1,1,0,1.557Z" transform="translate(372.839 2553.015)"/>
    <path id="Path_1149" data-name="Path 1149" class="cls-1" d="M21.269,33.328H14.482a.778.778,0,0,1,0-1.557h6.787a.778.778,0,1,1,0,1.557Z" transform="translate(374.524 2554.7)"/>
  </g>
</svg>
