<svg xmlns="http://www.w3.org/2000/svg" viewBox="0 0 39.387 49.045">
  <defs>
    <style>
      .cls-1 {
        fill: #294d97;
      }
    </style>
  </defs>
  <g id="Group_869" data-name="Group 869" transform="translate(-60 -2537.016)">
    <path id="Path_1298" data-name="Path 1298" class="cls-1" d="M31.925,38.118H13.834A10.658,10.658,0,0,1,3.186,27.472V14.549A3.2,3.2,0,0,1,6.38,11.355h33a3.2,3.2,0,0,1,3.192,3.194V27.472A10.658,10.658,0,0,1,31.925,38.118ZM6.38,12.869A1.681,1.681,0,0,0,4.7,14.547V27.47a9.141,9.141,0,0,0,9.132,9.13H31.925a9.141,9.141,0,0,0,9.13-9.13V14.547a1.679,1.679,0,0,0-1.677-1.678Z" transform="translate(56.814 2542.873)"/>
    <path id="Path_1299" data-name="Path 1299" class="cls-1" d="M12.8,18.727a.758.758,0,0,1-.758-.758V3.79A2.277,2.277,0,0,0,9.769,1.516h-.25A2.277,2.277,0,0,0,7.245,3.79V17.969a.758.758,0,0,1-1.516,0V3.79A3.793,3.793,0,0,1,9.519,0h.249a3.793,3.793,0,0,1,3.79,3.79V17.969A.756.756,0,0,1,12.8,18.727Z" transform="translate(58.126 2537.016)"/>
    <path id="Path_1300" data-name="Path 1300" class="cls-1" d="M28.53,18.727a.758.758,0,0,1-.758-.758V3.79A2.277,2.277,0,0,0,25.5,1.516H25.25A2.277,2.277,0,0,0,22.976,3.79V17.969a.758.758,0,1,1-1.516,0V3.79A3.793,3.793,0,0,1,25.25,0H25.5a3.793,3.793,0,0,1,3.79,3.79V17.969A.758.758,0,0,1,28.53,18.727Z" transform="translate(66.241 2537.016)"/>
    <path id="Path_1301" data-name="Path 1301" class="cls-1" d="M24.058,34.595H12.683a.758.758,0,0,1-.758-.758V28.768a.758.758,0,0,1,.758-.758H24.058a.758.758,0,0,1,.758.758v5.069A.758.758,0,0,1,24.058,34.595ZM13.441,33.079H23.3V29.526H13.441v3.553Z" transform="translate(61.322 2551.465)"/>
    <path id="Path_1302" data-name="Path 1302" class="cls-1" d="M14.886,27.13l1.842-5.062L14.4,21.4l4.36-5.181-1.3,4.526,2.325.664Z" transform="translate(62.6 2545.385)"/>
    <path id="Path_1303" data-name="Path 1303" class="cls-1" d="M15.144,28.146a.749.749,0,0,1-.382-.1.757.757,0,0,1-.33-.914l1.563-4.3-1.543-.441a.757.757,0,0,1-.373-1.217l4.361-5.181a.758.758,0,0,1,1.308.7l-1.094,3.8,1.595.456a.757.757,0,0,1,.368,1.222l-4.9,5.716A.757.757,0,0,1,15.144,28.146Zm2.28-6.439a.758.758,0,0,1,.273.878l-.415,1.144L18.7,22.075l-1.188-.34A.413.413,0,0,1,17.424,21.706Zm-1.431-.452,1.2.343a.583.583,0,0,1,.086.03.76.76,0,0,1-.29-.829l.318-1.1Z" transform="translate(62.341 2545.127)"/>
  </g>
</svg>
