<?xml version="1.0" encoding="UTF-8" standalone="no"?>
<svg
   xmlns:dc="http://purl.org/dc/elements/1.1/"
   xmlns:cc="http://creativecommons.org/ns#"
   xmlns:rdf="http://www.w3.org/1999/02/22-rdf-syntax-ns#"
   xmlns:svg="http://www.w3.org/2000/svg"
   xmlns="http://www.w3.org/2000/svg"
   xmlns:sodipodi="http://sodipodi.sourceforge.net/DTD/sodipodi-0.dtd"
   xmlns:inkscape="http://www.inkscape.org/namespaces/inkscape"
   viewBox="0 0 46.164 46.383"
   version="1.1"
   id="svg4512"
   sodipodi:docname="duvidas-icon-manutencao.svg"
   inkscape:version="0.92.1 r15371">
  <metadata
     id="metadata4516">
    <rdf:RDF>
      <cc:Work
         rdf:about="">
        <dc:format>image/svg+xml</dc:format>
        <dc:type
           rdf:resource="http://purl.org/dc/dcmitype/StillImage" />
      </cc:Work>
    </rdf:RDF>
  </metadata>
  <sodipodi:namedview
     pagecolor="#ffffff"
     bordercolor="#666666"
     borderopacity="1"
     objecttolerance="10"
     gridtolerance="10"
     guidetolerance="10"
     inkscape:pageopacity="0"
     inkscape:pageshadow="2"
     inkscape:window-width="1600"
     inkscape:window-height="837"
     id="namedview4514"
     showgrid="false"
     inkscape:zoom="10.176142"
     inkscape:cx="8.1092119"
     inkscape:cy="17.350796"
     inkscape:window-x="-8"
     inkscape:window-y="-8"
     inkscape:window-maximized="1"
     inkscape:current-layer="svg4512" />
  <defs
     id="defs4509">
    <style
       id="style4507">
      .cls-1 {
        fill: #294d97;
        stroke: #f8f7f7;
        stroke-width: 0.5px;
      }
    </style>
  </defs>
  <path
     id="screwdriver-and-wrench"
     class="cls-1"
     d="M 45.215778,39.610917 34.091042,28.49027 33.924422,27.656145 a 2.6301519,2.6301519 0 0 0 -4.439468,-1.345231 l -1.022211,1.022213 -3.10957,-3.109569 9.649683,-9.649683 a 7.5173483,7.5173483 0 0 1 3.005304,-1.82056 6.7200228,6.7200228 0 0 0 2.68024,-1.63554 6.706734,6.706734 0 0 0 -0.156399,-9.6353717 0.95576837,0.95576837 0 0 0 -1.566028,0.4088849 L 37.879361,5.3668095 A 1.5874954,1.5874954 0 0 1 34.849524,4.4212633 L 35.922847,0.98151941 A 0.95576837,0.95576837 0 0 0 34.85668,-0.24309081 6.6944674,6.6944674 0 0 0 29.280512,7.1168368 7.2219289,7.2219289 0 0 1 27.156356,13.033401 L 20.658153,19.532626 7.2671733,6.1334686 7.4716156,3.330563 A 0.95576837,0.95576837 0 0 0 6.9921982,2.4320384 L 2.9370825,0.11877231 A 0.95576837,0.95576837 0 0 0 1.7870938,0.27210412 L 0.04933314,2.0098648 A 0.95576837,0.95576837 0 0 0 -0.10297647,3.1578091 L 2.2113119,7.2067914 a 0.95576837,0.95576837 0 0 0 0.829014,0.4814619 h 0.068488 L 5.9127421,7.483811 19.310877,20.88399 9.6611942,30.533673 A 7.5183704,7.5183704 0 0 1 6.6538459,32.353211 6.721045,6.721045 0 0 0 3.9756501,33.98875 6.706734,6.706734 0 0 0 4.1320485,43.6231 0.95576837,0.95576837 0 0 0 5.6980776,43.214215 L 6.7836669,39.738694 A 1.5874954,1.5874954 0 0 1 9.8135038,40.68424 L 8.740181,44.123983 a 0.95576837,0.95576837 0 0 0 0.9118132,1.239944 0.9659905,0.9659905 0 0 0 0.1533318,-0.01226 6.6944674,6.6944674 0 0 0 5.576168,-7.359928 7.2219289,7.2219289 0 0 1 2.124156,-5.920653 l 6.494115,-6.494114 3.109568,3.10957 -1.022212,1.022212 a 2.6301519,2.6301519 0 0 0 1.345231,4.439467 l 0.834125,0.16662 11.12678,11.122691 a 4.1200351,4.1200351 0 0 0 5.82661,-5.826609 z M 5.3863029,5.6070294 3.5728985,5.7368503 1.9189592,2.8439899 2.6222412,2.140708 5.5161238,3.793625 Z M 16.160419,30.717671 a 9.1232436,9.1232436 0 0 0 -2.672063,7.483616 4.8125749,4.8125749 0 0 1 -1.606917,4.144048 4.7021759,4.7021759 0 0 1 -0.747237,0.536661 l 0.511106,-1.635539 A 3.4982441,3.4982441 0 0 0 4.9661736,39.163188 l -0.5407502,1.71425 a 4.7982638,4.7982638 0 0 1 2.8161945,-6.70469 9.4370627,9.4370627 0 0 0 3.7719631,-2.287711 L 28.50772,14.389876 A 9.1232436,9.1232436 0 0 0 31.179782,6.9062611 4.8125749,4.8125749 0 0 1 32.7867,2.762213 4.7021759,4.7021759 0 0 1 33.533937,2.2255516 L 33.022831,3.861091 a 3.4984599,3.4984599 0 0 0 6.681178,2.0781574 l 0.533595,-1.7111832 a 4.7982638,4.7982638 0 0 1 -2.815172,6.7057118 9.4370627,9.4370627 0 0 0 -3.771963,2.287711 z m 11.653219,1.554785 a 0.71554852,0.71554852 0 0 1 -0.367997,-1.214389 l 3.395789,-3.395788 a 0.68897099,0.68897099 0 0 1 0.49884,-0.211598 0.76154806,0.76154806 0 0 1 0.218753,0.03271 0.70430418,0.70430418 0 0 1 0.496795,0.547906 l 0.122665,0.613327 -3.751518,3.750496 -0.613327,-0.123687 z m 16.048731,11.813706 a 2.2090004,2.2090004 0 0 1 -3.119792,0 L 30.091126,33.431644 33.210918,30.308786 43.862369,40.96637 a 2.2059339,2.2059339 0 0 1 0,3.119792 z"
     style="fill:#294d97;stroke:#ffffff;stroke-width:0.51110607px"
     inkscape:connector-curvature="0" />
</svg>
