<svg xmlns="http://www.w3.org/2000/svg" xmlns:xlink="http://www.w3.org/1999/xlink" viewBox="0 0 448.553 448.555">
  <defs>
    <style>
      .cls-1 {
        opacity: 0.243;
        fill: url(#linear-gradient);
      }

      .cls-2, .cls-3 {
        stroke: none;
      }

      .cls-3 {
        fill: #fff;
      }
    </style>
    <linearGradient id="linear-gradient" x1="0.137" y1="0.201" x2="0.957" y2="0.957" gradientUnits="objectBoundingBox">
      <stop offset="0" stop-color="#fff"/>
      <stop offset="1" stop-color="gray" stop-opacity="0"/>
    </linearGradient>
  </defs>
  <g id="Path_2396" data-name="Path 2396" class="cls-1" transform="translate(0 224.278) rotate(-45)">
    <path class="cls-2" d="M 272.5103149414062 316.6749572753906 L 44.66474533081055 316.6749572753906 L 0.5000771880149841 272.5102844238281 L 0.5000355839729309 44.45761871337891 C 0.5000355839729309 38.52315902709961 1.66220223903656 32.76649475097656 3.954243898391724 27.34749412536621 C 6.16820240020752 22.11311912536621 9.337743759155273 17.41207695007324 13.37491035461426 13.37491035461426 C 17.41207695007324 9.337743759155273 22.11311912536621 6.16820240020752 27.34749412536621 3.954243898391724 C 32.76649475097656 1.66220223903656 38.52315902709961 0.5000355839729309 44.45761871337891 0.5000355839729309 L 272.5102844238281 0.5000771880149841 L 316.6749572753906 44.66474533081055 L 316.6749572753906 272.5103149414062 L 272.5103149414062 316.6749572753906 Z"/>
    <path class="cls-3" d="M 272.3031616210938 316.1749572753906 L 316.1749572753906 272.3031616210938 L 316.1749572753906 44.87191009521484 L 272.3031311035156 1.000077128410339 L 44.45761871337891 1.000035524368286 C 38.5904541015625 1.000035524368286 32.89928436279297 2.148910522460938 27.54228591918945 4.414743900299072 C 22.36749458312988 6.603493690490723 17.71986961364746 9.737076759338379 13.72845268249512 13.72845268249512 C 9.737076759338379 17.71986961364746 6.603493690490723 22.36749458312988 4.414743900299072 27.54228591918945 C 2.148910522460938 32.89928436279297 1.000035524368286 38.5904541015625 1.000035524368286 44.45761871337891 L 1.000077128410339 272.3031311035156 L 44.87191009521484 316.1749572753906 L 272.3031616210938 316.1749572753906 M 272.7174072265625 317.1749572753906 L 44.45766067504883 317.1749572753906 L 7.722981536062434e-05 272.7173767089844 L 3.556315277819522e-05 44.45761871337891 C 3.556315277819522e-05 19.90436935424805 19.90436935424805 3.556315277819522e-05 44.45761871337891 3.556315277819522e-05 L 272.7173767089844 7.722981536062434e-05 L 317.1749572753906 44.45766067504883 L 317.1749572753906 272.7174072265625 L 272.7174072265625 317.1749572753906 Z"/>
  </g>
</svg>
