<svg xmlns="http://www.w3.org/2000/svg" xmlns:xlink="http://www.w3.org/1999/xlink" viewBox="0 0 903.473 903.472">
  <defs>
    <style>
      .cls-1 {
        opacity: 0.679;
        fill: url(#linear-gradient);
      }

      .cls-2, .cls-3 {
        stroke: none;
      }

      .cls-3 {
        fill: #fff;
      }
    </style>
    <linearGradient id="linear-gradient" x1="0.669" y1="0.343" x2="0.027" y2="0.973" gradientUnits="objectBoundingBox">
      <stop offset="0" stop-color="#fafafa" stop-opacity="0.059"/>
      <stop offset="1" stop-color="#fff" stop-opacity="0.867"/>
    </linearGradient>
  </defs>
  <g id="Path_2385" data-name="Path 2385" class="cls-1" transform="translate(451.736 903.472) rotate(-135)">
    <path class="cls-2" d="M 590.5003662109375 637.8510131835938 L 48.35075759887695 637.8510131835938 C 37.97283935546875 637.8510131835938 28.05075645446777 634.50341796875 19.65717315673828 628.170166015625 C 14.01850700378418 623.91650390625 9.333673477172852 618.3072509765625 6.10917329788208 611.94873046875 C 4.460923194885254 608.69873046875 3.190423250198364 605.2553100585938 2.332923173904419 601.7142333984375 C 1.448423266410828 598.0619506835938 1.000006556510925 594.2890014648438 1.000006556510925 590.5003662109375 L 1.000006556510925 48.35075759887695 C 1.000006556510925 41.9580078125 2.251839876174927 35.75700759887695 4.720673084259033 29.92000579833984 C 7.105506420135498 24.28158950805664 10.51975631713867 19.21767234802246 14.86867332458496 14.86867332458496 C 19.21767234802246 10.51975631713867 24.28158950805664 7.105506420135498 29.92000579833984 4.720673084259033 C 35.75700759887695 2.251839876174927 41.9580078125 1.000006556510925 48.35075759887695 1.000006556510925 L 590.5003662109375 1.000006556510925 C 596.89306640625 1.000006556510925 603.0941162109375 2.251839876174927 608.9310302734375 4.720673084259033 C 614.5693969726562 7.105506420135498 619.6334228515625 10.51975631713867 623.9823608398438 14.86867332458496 C 628.3312377929688 19.21767234802246 631.7454833984375 24.28158950805664 634.1303100585938 29.92000579833984 C 636.5991821289062 35.75700759887695 637.8510131835938 41.9580078125 637.8510131835938 48.35075759887695 L 637.8510131835938 590.5003662109375 C 637.8510131835938 596.89306640625 636.5991821289062 603.0941162109375 634.1303100585938 608.9310913085938 C 631.7454833984375 614.5693969726562 628.3312377929688 619.6334228515625 623.9823608398438 623.9823608398438 C 619.6334228515625 628.3312377929688 614.5693969726562 631.7454833984375 608.9310913085938 634.1303100585938 C 603.0941162109375 636.5991821289062 596.89306640625 637.8510131835938 590.5003662109375 637.8510131835938 Z"/>
    <path class="cls-3" d="M 590.5003662109375 636.8510131835938 C 596.7584838867188 636.8510131835938 602.8284301757812 635.625732421875 608.54150390625 633.2093505859375 C 614.0606689453125 630.8749389648438 619.017822265625 627.5325927734375 623.275146484375 623.275146484375 C 627.5325927734375 619.017822265625 630.8749389648438 614.0606689453125 633.2093505859375 608.54150390625 C 635.625732421875 602.8284301757812 636.8510131835938 596.7584838867188 636.8510131835938 590.5003662109375 L 636.8510131835938 48.35075759887695 C 636.8510131835938 42.09259033203125 635.625732421875 36.02259063720703 633.2093505859375 30.30958938598633 C 630.8749389648438 24.79034042358398 627.5325927734375 19.83325576782227 623.275146484375 15.57583999633789 C 619.017822265625 11.3184232711792 614.0606689453125 7.976089954376221 608.54150390625 5.64167308807373 C 602.8284301757812 3.225256681442261 596.7584838867188 2.000006675720215 590.5003662109375 2.000006675720215 L 48.35075759887695 2.000006675720215 C 42.09259033203125 2.000006675720215 36.02259063720703 3.225256681442261 30.30958938598633 5.64167308807373 C 24.79034042358398 7.976089954376221 19.83325576782227 11.3184232711792 15.57583999633789 15.57583999633789 C 11.3184232711792 19.83325576782227 7.976089954376221 24.79034042358398 5.64167308807373 30.30958938598633 C 3.225256681442261 36.02259063720703 2.000006675720215 42.09259033203125 2.000006675720215 48.35075759887695 L 2.000006675720215 590.5003662109375 C 2.000006675720215 594.2098388671875 2.439006567001343 597.9035034179688 3.304839849472046 601.4788208007812 C 4.144173145294189 604.9449462890625 5.387756824493408 608.3153686523438 7.001006603240967 611.4965209960938 C 10.15700626373291 617.7198486328125 14.74167346954346 623.2094116210938 20.25950622558594 627.3719482421875 C 28.47817420959473 633.5731811523438 38.1920051574707 636.8510131835938 48.35075759887695 636.8510131835938 L 590.5003662109375 636.8510131835938 M 590.5003662109375 638.8510131835938 L 48.35075759887695 638.8510131835938 C 37.4290885925293 638.8510131835938 27.35325622558594 635.2298583984375 19.05484008789062 628.9684448242188 C 7.561089992523193 620.2978515625 6.591797045985004e-06 606.2821044921875 6.591797045985004e-06 590.5003662109375 L 6.591797045985004e-06 48.35075759887695 C 6.591797045985004e-06 21.64734077453613 21.64734077453613 6.591797045985004e-06 48.35075759887695 6.591797045985004e-06 L 590.5003662109375 6.591797045985004e-06 C 617.2036743164062 6.591797045985004e-06 638.8510131835938 21.64734077453613 638.8510131835938 48.35075759887695 L 638.8510131835938 590.5003662109375 C 638.8510131835938 617.2036743164062 617.2036743164062 638.8510131835938 590.5003662109375 638.8510131835938 Z"/>
  </g>
</svg>
