<svg xmlns="http://www.w3.org/2000/svg" xmlns:xlink="http://www.w3.org/1999/xlink" viewBox="0 0 623.313 623.312">
  <defs>
    <style>
      .cls-1 {
        opacity: 0.575;
        fill: url(#linear-gradient);
      }

      .cls-2, .cls-3 {
        stroke: none;
      }

      .cls-3 {
        fill: #fff;
      }
    </style>
    <linearGradient id="linear-gradient" x1="0.669" y1="0.343" x2="0.027" y2="0.973" gradientUnits="objectBoundingBox">
      <stop offset="0" stop-color="#fafafa" stop-opacity="0.059"/>
      <stop offset="1" stop-color="#fff" stop-opacity="0.867"/>
    </linearGradient>
  </defs>
  <g id="Path_2386" data-name="Path 2386" class="cls-1" transform="translate(311.657 623.311) rotate(-135)">
    <path class="cls-2" d="M 407.3901977539062 440.2476501464844 L 33.35747528076172 440.2476501464844 C 26.15614318847656 440.2476501464844 19.27125358581543 437.9248657226562 13.4472541809082 433.5304870605469 C 9.534143447875977 430.5784912109375 6.283031940460205 426.6859130859375 4.045365333557129 422.2734680175781 C 2.901643037796021 420.0181579589844 2.020031929016113 417.6286926269531 1.424920916557312 415.1714172363281 C 0.8111987113952637 412.6370239257812 0.5000320076942444 410.0190734863281 0.5000320076942444 407.3901977539062 L 0.5000320076942444 33.35747528076172 C 0.5000320076942444 28.92153167724609 1.368698716163635 24.61853218078613 3.081920862197876 20.56803131103516 C 4.736809730529785 16.65542030334473 7.106031894683838 13.14147663116455 10.12375450134277 10.12375450134277 C 13.14147663116455 7.106031894683838 16.65542030334473 4.736809730529785 20.56803131103516 3.081920862197876 C 24.61853218078613 1.368698716163635 28.92153167724609 0.5000320076942444 33.35747528076172 0.5000320076942444 L 407.3901977539062 0.5000320076942444 C 411.8261413574219 0.5000320076942444 416.129150390625 1.368698716163635 420.1796569824219 3.081920862197876 C 424.0921936035156 4.736809730529785 427.606201171875 7.106031894683838 430.6239318847656 10.12375450134277 C 433.6416320800781 13.14147663116455 436.0108642578125 16.65542030334473 437.6657409667969 20.56803131103516 C 439.3789672851562 24.61853218078613 440.2476501464844 28.92153167724609 440.2476501464844 33.35747528076172 L 440.2476501464844 407.3901977539062 C 440.2476501464844 411.8261413574219 439.3789672851562 416.129150390625 437.6657409667969 420.1796569824219 C 436.0108642578125 424.0921936035156 433.6416320800781 427.606201171875 430.6239318847656 430.6239318847656 C 427.606201171875 433.6416320800781 424.0921936035156 436.0108642578125 420.1796569824219 437.6657409667969 C 416.129150390625 439.3789672851562 411.8261413574219 440.2476501464844 407.3901977539062 440.2476501464844 Z"/>
    <path class="cls-3" d="M 407.3901977539062 439.7476501464844 C 411.7588806152344 439.7476501464844 415.9963073730469 438.8922424316406 419.98486328125 437.2052612304688 C 423.8377990722656 435.5755920410156 427.2983703613281 433.2423095703125 430.2703552246094 430.2703552246094 C 433.2423095703125 427.2983703613281 435.5755920410156 423.8377990722656 437.2052612304688 419.98486328125 C 438.8922424316406 415.9963073730469 439.7476501464844 411.7588806152344 439.7476501464844 407.3901977539062 L 439.7476501464844 33.35747528076172 C 439.7476501464844 28.98880958557129 438.8922424316406 24.75136566162109 437.2052612304688 20.76280975341797 C 435.5755920410156 16.90980911254883 433.2423095703125 13.44925403594971 430.2703552246094 10.47731018066406 C 427.2983703613281 7.505309581756592 423.8378601074219 5.172087669372559 419.98486328125 3.542420864105225 C 415.9963073730469 1.85542094707489 411.7588806152344 1.000032067298889 407.3901977539062 1.000032067298889 L 33.35747528076172 1.000032067298889 C 28.98880958557129 1.000032067298889 24.75136566162109 1.85542094707489 20.76280975341797 3.542420864105225 C 16.90980911254883 5.172087669372559 13.44925403594971 7.505309581756592 10.47731018066406 10.47731018066406 C 7.505309581756592 13.44925403594971 5.172087669372559 16.90980911254883 3.542420864105225 20.76280975341797 C 1.85542094707489 24.75136566162109 1.000032067298889 28.98880958557129 1.000032067298889 33.35747528076172 L 1.000032067298889 407.3901977539062 C 1.000032067298889 409.9794616699219 1.306476473808289 412.557861328125 1.910920977592468 415.0537414550781 C 2.496865272521973 417.4734802246094 3.365031957626343 419.8264770507812 4.491309642791748 422.0473022460938 C 6.694698810577393 426.3922119140625 9.895698547363281 430.2249755859375 13.74842071533203 433.1313171386719 C 19.48497581481934 437.4597473144531 26.26569938659668 439.7476501464844 33.35747528076172 439.7476501464844 L 407.3901977539062 439.7476501464844 M 407.3901977539062 440.7476501464844 L 33.35747528076172 440.7476501464844 C 25.82258796691895 440.7476501464844 18.8711986541748 438.2493591308594 13.14608764648438 433.9295959472656 C 5.216421127319336 427.9476318359375 3.203667438356206e-05 418.278076171875 3.203667438356206e-05 407.3901977539062 L 3.203667438356206e-05 33.35747528076172 C 3.203667438356206e-05 14.93464279174805 14.93464279174805 3.203667438356206e-05 33.35747528076172 3.203667438356206e-05 L 407.3901977539062 3.203667438356206e-05 C 425.81298828125 3.203667438356206e-05 440.7476501464844 14.93464279174805 440.7476501464844 33.35747528076172 L 440.7476501464844 407.3901977539062 C 440.7476501464844 425.81298828125 425.81298828125 440.7476501464844 407.3901977539062 440.7476501464844 Z"/>
  </g>
</svg>
