<svg xmlns="http://www.w3.org/2000/svg" xmlns:xlink="http://www.w3.org/1999/xlink" viewBox="0 0 466.398 466.398">
  <defs>
    <style>
      .cls-1 {
        opacity: 0.243;
        fill: url(#linear-gradient);
      }

      .cls-2, .cls-3 {
        stroke: none;
      }

      .cls-3 {
        fill: #fff;
      }
    </style>
    <linearGradient id="linear-gradient" x1="0.797" y1="0.797" x2="0.039" y2="0.039" gradientUnits="objectBoundingBox">
      <stop offset="0" stop-color="#fff"/>
      <stop offset="1" stop-color="gray" stop-opacity="0"/>
    </linearGradient>
  </defs>
  <g id="Path_2397" data-name="Path 2397" class="cls-1" transform="translate(0 233.199) rotate(-45)">
    <path class="cls-2" d="M 283.5676879882812 329.2940979003906 L 46.43350601196289 329.2940368652344 L 0.5000905990600586 283.360595703125 L 0.5000489950180054 46.43346405029297 L 46.43346405029297 0.5000489950180054 L 283.360595703125 0.5000905990600586 L 329.2940368652344 46.43350601196289 L 329.2940979003906 283.5676879882812 C 329.2940979003906 289.7409362792969 328.0851745605469 295.729248046875 325.7008972167969 301.3663024902344 C 323.3978271484375 306.8113403320312 320.1007080078125 311.7015380859375 315.901123046875 315.901123046875 C 311.7015380859375 320.1007080078125 306.8113403320312 323.3978271484375 301.3663024902344 325.7008972167969 C 295.729248046875 328.0851745605469 289.7409362792969 329.2940979003906 283.5676879882812 329.2940979003906 Z"/>
    <path class="cls-3" d="M 283.5676879882812 329.7940979003906 L 283.5676879882812 328.7940979003906 C 289.6736450195312 328.7940979003906 295.596435546875 327.5984802246094 301.1715393066406 325.2403869628906 C 306.5569763183594 322.9625549316406 311.3937683105469 319.701416015625 315.5475769042969 315.5475769042969 C 319.701416015625 311.3937683105469 322.9625549316406 306.5569763183594 325.2403869628906 301.1715393066406 C 327.5984802246094 295.596435546875 328.7940979003906 289.6736450195312 328.7940979003906 283.5676879882812 L 328.7940368652344 46.64067459106445 L 283.1534118652344 1.000090599060059 L 46.64063262939453 1.000048995018005 L 1.000048995018005 46.64063262939453 L 1.000090599060059 283.1534118652344 L 46.64067459106445 328.7940368652344 L 283.5676879882812 328.7940979003906 L 283.5676879882812 329.7940979003906 M 283.5676879882812 329.7940979003906 L 46.22642517089844 329.7940368652344 L 9.061686432687566e-05 283.5676879882812 L 4.895019446848892e-05 46.22638320922852 L 46.22638320922852 4.895019446848892e-05 L 283.5676879882812 9.061686432687566e-05 L 329.7940368652344 46.22642517089844 L 329.7940979003906 283.5676879882812 C 329.7940979003906 309.0978393554688 309.0978393554688 329.7940979003906 283.5676879882812 329.7940979003906 Z"/>
  </g>
</svg>
