<svg xmlns="http://www.w3.org/2000/svg" viewBox="0 0 46 46">
  <defs>
    <style>
      .cls-1, .cls-4 {
        fill: none;
      }

      .cls-1 {
        stroke: #fff;
        stroke-width: 2px;
      }

      .cls-2 {
        fill: #fff;
      }

      .cls-3 {
        stroke: none;
      }
    </style>
  </defs>
  <g id="Group_1876" data-name="Group 1876" transform="translate(-838 -4654)">
    <g id="Ellipse_309" data-name="Ellipse 309" class="cls-1" transform="translate(838 4654)">
      <circle class="cls-3" cx="23" cy="23" r="23"/>
      <circle class="cls-4" cx="23" cy="23" r="22"/>
    </g>
    <g id="whatsapp-logo" transform="translate(848.359 4664.359)">
      <path id="WhatsApp" class="cls-2" d="M25.281,12.315A12.431,12.431,0,0,1,6.871,23.1L0,25.281l2.24-6.607A12.185,12.185,0,0,1,.459,12.315a12.411,12.411,0,0,1,24.822,0ZM12.87,1.961A10.406,10.406,0,0,0,2.436,12.315a10.245,10.245,0,0,0,1.988,6.07l-1.3,3.845,4.01-1.274a10.445,10.445,0,0,0,16.175-8.641A10.407,10.407,0,0,0,12.87,1.961Zm6.267,13.19c-.077-.126-.279-.2-.583-.352s-1.8-.881-2.079-.982-.482-.151-.685.151-.786.982-.963,1.183-.355.227-.659.076a8.327,8.327,0,0,1-2.446-1.5,9.1,9.1,0,0,1-1.692-2.09c-.177-.3-.019-.465.133-.615s.3-.353.456-.529a2.023,2.023,0,0,0,.3-.5.55.55,0,0,0-.025-.529c-.076-.151-.685-1.636-.938-2.241s-.506-.5-.684-.5-.38-.025-.583-.025a1.123,1.123,0,0,0-.812.378A3.375,3.375,0,0,0,6.817,9.588,5.841,5.841,0,0,0,8.059,12.71a12.436,12.436,0,0,0,5.2,4.557c3.093,1.208,3.093.805,3.651.755a3.077,3.077,0,0,0,2.054-1.435A2.516,2.516,0,0,0,19.138,15.151Z"/>
    </g>
  </g>
</svg>
