<svg xmlns="http://www.w3.org/2000/svg" viewBox="0 0 52.553 52.553">
  <defs>
    <style>
      .cls-1 {
        fill: #fff;
      }
    </style>
  </defs>
  <g id="gauge" transform="translate(88.211 -16)">
    <g id="Group_1832" data-name="Group 1832" transform="translate(-88.211 16)">
      <g id="Group_1831" data-name="Group 1831" transform="translate(0)">
        <path id="Path_2487" data-name="Path 2487" class="cls-1" d="M26.276,0A26.276,26.276,0,1,0,52.553,26.276,26.307,26.307,0,0,0,26.276,0Zm0,50.363A24.122,24.122,0,0,1,3.108,32.845H18.69a9.2,9.2,0,0,0,7.586,4.379,9.2,9.2,0,0,0,7.586-4.379H49.444A24.122,24.122,0,0,1,26.276,50.363Zm6.979-19.707a1.1,1.1,0,0,0-.945.541,7.163,7.163,0,0,1-6.034,3.839A7.163,7.163,0,0,1,20.243,31.2a1.1,1.1,0,0,0-.945-.541H2.6a24.087,24.087,0,1,1,47.361,0Z" transform="translate(0)"/>
        <path id="Path_2488" data-name="Path 2488" class="cls-1" d="M225.7,149.772l-6.519,6.519a4.328,4.328,0,0,0-1.466-.27,4.43,4.43,0,1,0,3.3,1.533l6.233-6.233a1.095,1.095,0,0,0-1.548-1.548Zm-7.985,12.817a2.19,2.19,0,1,1,2.19-2.19A2.19,2.19,0,0,1,217.712,162.589Z" transform="translate(-191.436 -134.123)"/>
        <path id="Path_2489" data-name="Path 2489" class="cls-1" d="M246.428,38.569a1.1,1.1,0,0,0,1.095-1.095V33.095a1.095,1.095,0,1,0-2.19,0v4.379A1.1,1.1,0,0,0,246.428,38.569Z" transform="translate(-220.152 -28.715)"/>
        <path id="Path_2490" data-name="Path 2490" class="cls-1" d="M421.473,245.333h-4.379a1.095,1.095,0,1,0,0,2.19h4.379a1.095,1.095,0,1,0,0-2.19Z" transform="translate(-373.3 -220.152)"/>
        <path id="Path_2491" data-name="Path 2491" class="cls-1" d="M37.474,245.333H33.095a1.095,1.095,0,1,0,0,2.19h4.379a1.095,1.095,0,0,0,0-2.19Z" transform="translate(-28.715 -220.152)"/>
        <path id="Path_2492" data-name="Path 2492" class="cls-1" d="M144.81,68.173l-1.861-3.231a1.095,1.095,0,0,0-1.9,1.095l1.861,3.231a1.095,1.095,0,1,0,1.9-1.082Z" transform="translate(-126.446 -57.791)"/>
        <path id="Path_2493" data-name="Path 2493" class="cls-1" d="M400.141,141.392a1.1,1.1,0,0,0-1.493-.411l-.013.007L395.4,142.85a1.095,1.095,0,1,0,1.095,1.9l3.231-1.861A1.1,1.1,0,0,0,400.141,141.392Z" transform="translate(-354.328 -126.382)"/>
        <path id="Path_2494" data-name="Path 2494" class="cls-1" d="M69.171,142.826l-.013-.007-3.231-1.861a1.095,1.095,0,1,0-1.107,1.889l.013.007h0l3.231,1.861a1.095,1.095,0,1,0,1.108-1.889Z" transform="translate(-57.681 -126.354)"/>
        <path id="Path_2495" data-name="Path 2495" class="cls-1" d="M335.151,64.554a1.1,1.1,0,0,0-1.486.4L331.8,68.183a1.095,1.095,0,1,0,1.9,1.095l1.861-3.231A1.1,1.1,0,0,0,335.151,64.554Z" transform="translate(-297.615 -57.8)"/>
      </g>
    </g>
  </g>
</svg>
