<svg id="coin-icon" xmlns="http://www.w3.org/2000/svg" viewBox="0 0 34.943 34.943">
  <defs>
    <style>
      .cls-1 {
        fill: #004c9b;
      }
    </style>
  </defs>
  <g id="Group_1819" data-name="Group 1819">
    <g id="Group_1818" data-name="Group 1818">
      <path id="Path_2475" data-name="Path 2475" class="cls-1" d="M17.474,34.943v0A17.472,17.472,0,1,1,34.943,17.472,17.493,17.493,0,0,1,17.472,34.943Zm0-33.264a15.793,15.793,0,1,0,0,31.585h0a15.793,15.793,0,0,0,0-31.585Z"/>
      <g id="Group_1817" data-name="Group 1817" transform="translate(11.715 4.954)">
        <path id="Path_2476" data-name="Path 2476" class="cls-1" d="M210.933,150.711a5.6,5.6,0,0,1-5.757-5.424.84.84,0,1,1,1.679,0,4.093,4.093,0,1,0,4.078-3.746,5.434,5.434,0,1,1,0-10.849,5.893,5.893,0,0,1,4.408,1.935.84.84,0,0,1-1.253,1.118,4.212,4.212,0,0,0-3.155-1.373,3.759,3.759,0,1,0,0,7.491,5.434,5.434,0,1,1,0,10.849Z" transform="translate(-205.176 -128.184)"/>
        <path id="Path_2477" data-name="Path 2477" class="cls-1" d="M289.452,111.795a.839.839,0,0,1-.84-.84V87.6a.839.839,0,1,1,1.679,0v23.357A.839.839,0,0,1,289.452,111.795Z" transform="translate(-283.848 -86.759)"/>
      </g>
    </g>
  </g>
</svg>
