<svg xmlns="http://www.w3.org/2000/svg" viewBox="0 0 43.453 43.451">
  <defs>
    <style>
      .cls-1 {
        fill: #fff;
      }
    </style>
  </defs>
  <g id="full-size" transform="translate(0 -0.002)">
    <path id="Path_2496" data-name="Path 2496" class="cls-1" d="M1.513,13.135a1.513,1.513,0,0,0,1.513-1.513V5.169l9.747,9.745a1.513,1.513,0,1,0,2.14-2.14L5.166,3.029H11.62A1.513,1.513,0,1,0,11.62,0H1.513A1.513,1.513,0,0,0,0,1.515V11.622A1.513,1.513,0,0,0,1.513,13.135Z"/>
    <path id="Path_2497" data-name="Path 2497" class="cls-1" d="M151.9,140.276a1.513,1.513,0,0,0-1.513,1.513v6.453L140.338,138.2a1.513,1.513,0,0,0-2.14,2.14l10.047,10.047h-6.452a1.513,1.513,0,0,0,0,3.027H151.9a1.513,1.513,0,0,0,1.513-1.513V141.79A1.514,1.514,0,0,0,151.9,140.276Z" transform="translate(-109.959 -109.956)"/>
    <path id="Path_2498" data-name="Path 2498" class="cls-1" d="M13.077,138.2,3.032,148.242V141.79a1.513,1.513,0,0,0-3.027,0V151.9a1.513,1.513,0,0,0,1.513,1.513H11.624a1.513,1.513,0,0,0,0-3.027H5.172l10.046-10.047a1.513,1.513,0,0,0-2.14-2.14Z" transform="translate(-0.004 -109.955)"/>
    <path id="Path_2499" data-name="Path 2499" class="cls-1" d="M153.091,0H142.984a1.513,1.513,0,0,0,0,3.027h6.453l-9.745,9.746a1.513,1.513,0,0,0,2.14,2.14l9.745-9.746v6.453a1.513,1.513,0,1,0,3.027,0V1.515A1.514,1.514,0,0,0,153.091,0Z" transform="translate(-111.151 0)"/>
  </g>
</svg>
