<svg xmlns="http://www.w3.org/2000/svg" viewBox="0 0 123.135 140.13">
  <defs>
    <style>
      .cls-1 {
        fill: #fff;
        fill-rule: evenodd;
      }
    </style>
  </defs>
  <g id="InduÌstrias" transform="translate(0.008 -0.029)">
    <path id="Forma_1" data-name="Forma 1" class="cls-1" d="M120.682,135.805h-9.514V75.94a2.145,2.145,0,0,0-2.175-2.177h-3.806l-5.98-37.28a1.986,1.986,0,0,0-1.9-1.633H85.073a1.818,1.818,0,0,0-1.9,1.633l-5.98,37.28H69.58V57.708a2.754,2.754,0,0,0-1.088-1.9,2.05,2.05,0,0,0-2.175.272L42.669,73.763V57.708a2.754,2.754,0,0,0-1.088-1.9,2.05,2.05,0,0,0-2.175.272L15.758,73.763H12.5a2.145,2.145,0,0,0-2.175,2.177v59.866H2.169a2.177,2.177,0,1,0,0,4.354H120.953a2.145,2.145,0,0,0,2.174-2.177A2.89,2.89,0,0,0,120.682,135.805ZM86.7,38.932h8.7l5.708,34.831H81.268ZM65.5,61.79V73.763H49.465Zm-26.91,0V73.763H22.555Zm2.99,74.016H27.991V109.682H41.582v26.123Zm17.668,0H45.66V109.682H59.251Zm47.568,0H63.6V107.777a2.145,2.145,0,0,0-2.175-2.177H25.817a2.145,2.145,0,0,0-2.175,2.177v28.3H14.129V77.845h92.69v57.961h0ZM99.208,9.815V9a8.97,8.97,0,0,0-17.94,0v.816c-1.633,1.633-3.262,4.082-3.262,6.531,0,2.721,1.631,4.9,4.077,6.531a8.788,8.788,0,0,0,2.175,5.714,2.435,2.435,0,0,0,2.99.272,2.439,2.439,0,0,0,.272-2.993A4.338,4.338,0,0,1,86.432,22.6v-.544a2.476,2.476,0,0,0-1.088-2.177c-1.9-1.088-3.262-2.449-3.262-3.538,0-1.361,1.361-2.721,3.262-3.81a2.2,2.2,0,0,0,1.088-2.449,2.962,2.962,0,0,1-.272-1.361,4.893,4.893,0,1,1,9.786,0,2.962,2.962,0,0,1-.272,1.361,2.2,2.2,0,0,0,1.088,2.449c2.175,1.088,3.262,2.449,3.262,3.81s-1.088,2.721-3.262,3.538a1.851,1.851,0,0,0-1.088,2.177V22.6a4.39,4.39,0,0,1-1.633,3.538,2.137,2.137,0,0,0,0,2.993c.272.544.816.544,1.361.544a2.075,2.075,0,0,0,1.361-.544,8.862,8.862,0,0,0,2.718-6.259,7.7,7.7,0,0,0,4.077-6.531C103.557,13.625,101.926,11.448,99.208,9.815ZM42.126,88.185H28.535a2.177,2.177,0,0,0,0,4.354H42.127a2.177,2.177,0,0,0,0-4.354Zm22.833,0H51.368a2.177,2.177,0,0,0,0,4.354H64.959a2.145,2.145,0,0,0,2.175-2.177C66.862,89.273,66.046,88.185,64.959,88.185Zm22.561-.272H73.929a2.145,2.145,0,0,0-2.175,2.177c.272,1.361,1.088,2.177,2.175,2.177H87.52a2.177,2.177,0,1,0,0-4.354ZM92.141,105.6H73.113a2.145,2.145,0,0,0-2.175,2.177v14.15a2.145,2.145,0,0,0,2.175,2.177H92.14a2.145,2.145,0,0,0,2.175-2.177v-14.15c-.27-1.088-1.086-2.177-2.175-2.177Zm-2.175,14.15H75.016V109.682h14.95Z"/>
  </g>
</svg>
