<?xml version="1.0" encoding="UTF-8" standalone="no"?>
<svg
   xmlns:dc="http://purl.org/dc/elements/1.1/"
   xmlns:cc="http://creativecommons.org/ns#"
   xmlns:rdf="http://www.w3.org/1999/02/22-rdf-syntax-ns#"
   xmlns:svg="http://www.w3.org/2000/svg"
   xmlns="http://www.w3.org/2000/svg"
   xmlns:sodipodi="http://sodipodi.sourceforge.net/DTD/sodipodi-0.dtd"
   xmlns:inkscape="http://www.inkscape.org/namespaces/inkscape"
   viewBox="0 0 167.539 139.828"
   version="1.1"
   id="svg5604"
   sodipodi:docname="icon-residencias-dark-blue.svg"
   inkscape:version="0.92.1 r15371">
  <metadata
     id="metadata5608">
    <rdf:RDF>
      <cc:Work
         rdf:about="">
        <dc:format>image/svg+xml</dc:format>
        <dc:type
           rdf:resource="http://purl.org/dc/dcmitype/StillImage" />
        <dc:title />
      </cc:Work>
    </rdf:RDF>
  </metadata>
  <sodipodi:namedview
     pagecolor="#ffffff"
     bordercolor="#666666"
     borderopacity="1"
     objecttolerance="10"
     gridtolerance="10"
     guidetolerance="10"
     inkscape:pageopacity="0"
     inkscape:pageshadow="2"
     inkscape:window-width="1600"
     inkscape:window-height="837"
     id="namedview5606"
     showgrid="false"
     inkscape:zoom="1.6877878"
     inkscape:cx="-25.545189"
     inkscape:cy="69.914"
     inkscape:window-x="-8"
     inkscape:window-y="-8"
     inkscape:window-maximized="1"
     inkscape:current-layer="svg5604" />
  <defs
     id="defs5601">
    <style
       id="style5599">
      .cls-1 {
        fill: #004ba5;
        fill-rule: evenodd;
      }
    </style>
  </defs>
  <path
     id="residencias"
     class="cls-1"
     d="M163.146,55.574a2.714,2.714,0,0,0,4.394-2.131V38.977a2.71,2.71,0,0,0-1.035-2.131L122.323,2.058a8.483,8.483,0,0,0-10.525,0L95.168,15.152V10.046a2.713,2.713,0,0,0-2.714-2.712H80.874a2.713,2.713,0,0,0-2.714,2.712v18.5l-10.545,8.3a2.71,2.71,0,0,0-1.034,2.13V53.443a2.714,2.714,0,0,0,4.394,2.131l1.4-1.1V80.905L47.057,60.973a8.482,8.482,0,0,0-10.525,0l-35.5,27.95A2.71,2.71,0,0,0,0,91.053v14.466a2.714,2.714,0,0,0,4.394,2.13l1.4-1.1v28.081H2.714a2.712,2.712,0,1,0,0,5.425H164.825a2.712,2.712,0,1,0,0-5.425H161.75V54.475ZM83.589,12.758H89.74v6.668L83.589,24.27ZM72.009,40.293,115.157,6.32a3.069,3.069,0,0,1,3.807,0l43.147,33.973v7.561L118.74,13.7a2.716,2.716,0,0,0-3.36,0L72.009,47.854V40.293ZM5.428,92.369,39.891,65.233a3.069,3.069,0,0,1,3.807,0L72.371,87.81v7.56l-28.9-22.754a2.714,2.714,0,0,0-3.359,0L5.428,99.929Zm5.79,9.908L41.795,78.2l30.577,24.077v32.354H60.43v-32a2.713,2.713,0,0,0-2.714-2.712H25.873a2.713,2.713,0,0,0-2.714,2.712v32H11.217Zm17.369,14.634H55v6.148H28.587v-6.149ZM55,111.487H28.587v-6.149H55v6.148Zm-26.416,17H55v6.148H28.587v-6.149Zm78.523-14.095c-.06,0-.12-.009-.181-.009a2.712,2.712,0,1,0,0,5.425c.06,0,.121-.005.181-.009v14.836H95.168V99.552h11.941v14.836Zm49.213,20.243H112.537V96.839a2.713,2.713,0,0,0-2.714-2.712H92.454a2.713,2.713,0,0,0-2.714,2.712v37.791H77.8V50.2l39.261-30.915L156.322,50.2v84.431ZM124.3,122.7h17.369a2.713,2.713,0,0,0,2.714-2.712V96.839a2.713,2.713,0,0,0-2.714-2.712H124.3a2.713,2.713,0,0,0-2.714,2.712v23.145A2.713,2.713,0,0,0,124.3,122.7Zm2.714-5.424v-9.041h11.941v9.041Zm11.941-17.72v3.255H127.012V99.552ZM124.3,82.193h17.369a2.713,2.713,0,0,0,2.714-2.712V56.336a2.713,2.713,0,0,0-2.714-2.712H124.3a2.713,2.713,0,0,0-2.714,2.712V79.481a2.713,2.713,0,0,0,2.713,2.712Zm2.714-5.424v-9.04h11.941V76.77H127.012Zm11.941-17.72V62.3H127.012V59.048h11.941Zm-29.129-5.425H92.454a2.713,2.713,0,0,0-2.714,2.712V79.481a2.713,2.713,0,0,0,2.714,2.712h17.369a2.713,2.713,0,0,0,2.714-2.712V56.336a2.713,2.713,0,0,0-2.713-2.712Zm-2.714,5.425V62.3H95.168V59.048ZM95.168,76.769v-9.04h11.941V76.77H95.168Z"
     transform="translate(0 -0.228)"
     style="fill:#00357b;fill-opacity:1" />
</svg>
