<?xml version="1.0" encoding="UTF-8" standalone="no"?>
<svg
   xmlns:dc="http://purl.org/dc/elements/1.1/"
   xmlns:cc="http://creativecommons.org/ns#"
   xmlns:rdf="http://www.w3.org/1999/02/22-rdf-syntax-ns#"
   xmlns:svg="http://www.w3.org/2000/svg"
   xmlns="http://www.w3.org/2000/svg"
   xmlns:sodipodi="http://sodipodi.sourceforge.net/DTD/sodipodi-0.dtd"
   xmlns:inkscape="http://www.inkscape.org/namespaces/inkscape"
   viewBox="0 0 140.164 140.165"
   version="1.1"
   id="svg5050"
   sodipodi:docname="icon-empresas-dark-blue.svg"
   inkscape:version="0.92.1 r15371">
  <metadata
     id="metadata5054">
    <rdf:RDF>
      <cc:Work
         rdf:about="">
        <dc:format>image/svg+xml</dc:format>
        <dc:type
           rdf:resource="http://purl.org/dc/dcmitype/StillImage" />
        <dc:title />
      </cc:Work>
    </rdf:RDF>
  </metadata>
  <sodipodi:namedview
     pagecolor="#ffffff"
     bordercolor="#666666"
     borderopacity="1"
     objecttolerance="10"
     gridtolerance="10"
     guidetolerance="10"
     inkscape:pageopacity="0"
     inkscape:pageshadow="2"
     inkscape:window-width="1600"
     inkscape:window-height="837"
     id="namedview5052"
     showgrid="false"
     inkscape:zoom="1.68373"
     inkscape:cx="-39.496139"
     inkscape:cy="70.082498"
     inkscape:window-x="-8"
     inkscape:window-y="-8"
     inkscape:window-maximized="1"
     inkscape:current-layer="svg5050" />
  <defs
     id="defs5047">
    <style
       id="style5045">
      .cls-1 {
        fill: #004ba5;
        fill-rule: evenodd;
      }
    </style>
  </defs>
  <path
     id="office-block"
     class="cls-1"
     d="M133.155,126.147a6.867,6.867,0,0,0-1.2.105,9.329,9.329,0,0,0-16.287,0,6.869,6.869,0,0,0-1.2-.105,7.017,7.017,0,0,0-7.008,7.008,6.879,6.879,0,0,0,.432,2.336H98.114V121.475h11.68a2.337,2.337,0,0,0,2.336-2.336V25.7a2.337,2.337,0,0,0-2.336-2.336H39.712A2.337,2.337,0,0,0,37.376,25.7V137.828a2.337,2.337,0,0,0,2.336,2.336h93.442a7.008,7.008,0,1,0,0-14.016ZM98.114,28.033h9.344V42.049H98.114V28.033Zm0,18.689h9.344V60.738H98.114Zm0,18.688h9.344V79.426H98.114Zm0,18.689h9.344V98.114H98.114V84.1Zm0,18.689h9.344V116.8H98.114Zm-46.721,32.7H42.048V121.475h9.344Zm0-18.688H42.048V102.787h9.344Zm0-18.689H42.048V84.1h9.344Zm0-18.689H42.048V65.41h9.344Zm0-18.688H42.048V46.721h9.344Zm0-18.689H42.048V28.033h9.344V42.049Zm14.016,93.442H56.065V121.475h9.344Zm0-18.688H56.065V102.787h9.344Zm0-18.689H56.065V84.1h9.344V98.114Zm0-18.689H56.065V65.41h9.344Zm0-18.688H56.065V46.721h9.344Zm0-18.689H56.065V28.033h9.344V42.049Zm14.016,93.442H70.081V121.475h9.344Zm0-18.688H70.081V102.787h9.344Zm0-18.689H70.081V84.1h9.344V98.114Zm0-18.689H70.081V65.41h9.344Zm0-18.688H70.081V46.721h9.344Zm0-18.689H70.081V28.033h9.344V42.049Zm14.016,93.442H84.1V121.475h9.344Zm0-18.688H84.1V102.787h9.344Zm0-18.689H84.1V84.1h9.344V98.114Zm0-18.689H84.1V65.41h9.344Zm0-18.688H84.1V46.721h9.344Zm0-18.689H84.1V28.033h9.344V42.049Zm39.713,93.442H114.466a2.336,2.336,0,0,1,0-4.672,2.309,2.309,0,0,1,1.266.381,2.336,2.336,0,0,0,3.543-1.437,4.654,4.654,0,0,1,9.073,0,2.336,2.336,0,0,0,3.542,1.437,2.382,2.382,0,0,1,3.6,1.955,2.34,2.34,0,0,1-2.338,2.336ZM51.393,16.352V9.344H67.745a2.337,2.337,0,0,0,2.336-2.335V4.672h9.344V7.008a2.337,2.337,0,0,0,2.336,2.336H98.114v4.672H58.4a2.336,2.336,0,1,0,0,4.672h58.4v96.9a2.336,2.336,0,0,0,4.672,0V16.352a2.337,2.337,0,0,0-2.336-2.336H102.786V7.008a2.337,2.337,0,0,0-2.336-2.336H84.1V2.336A2.337,2.337,0,0,0,81.762,0H67.745a2.337,2.337,0,0,0-2.336,2.336V4.672H49.057a2.337,2.337,0,0,0-2.336,2.336v7.008H30.368a2.337,2.337,0,0,0-2.336,2.336V135.491H14.016V125.91a11.7,11.7,0,0,0,9.344-11.444c0-.3-.133-30.369-11.68-30.369S0,114.163,0,114.467a11.7,11.7,0,0,0,9.344,11.444v9.581H2.335a2.336,2.336,0,1,0,0,4.672H30.368a2.337,2.337,0,0,0,2.336-2.336V18.689H49.057A2.337,2.337,0,0,0,51.393,16.352ZM4.671,114.467c0-11.638,3.126-25.7,7.008-25.7s7.008,14.059,7.008,25.7a7.008,7.008,0,0,1-14.016,0Z"
     transform="translate(0.002)"
     style="fill:#00357b;fill-opacity:1" />
</svg>
