<svg xmlns="http://www.w3.org/2000/svg" viewBox="0 0 21.385 21.385">
  <defs>
    <style>
      .cls-1 {
        fill: #294d97;
        fill-rule: evenodd;
      }
    </style>
  </defs>
  <path id="Path_3" data-name="Path 3" class="cls-1" d="M10.692,1.9a32.784,32.784,0,0,1,4.277.119,5.51,5.51,0,0,1,2.02.356,4.172,4.172,0,0,1,2.02,2.02,5.51,5.51,0,0,1,.356,2.02c0,1.069.119,1.426.119,4.277a32.784,32.784,0,0,1-.119,4.277,5.51,5.51,0,0,1-.356,2.02,4.172,4.172,0,0,1-2.02,2.02,5.51,5.51,0,0,1-2.02.356c-1.069,0-1.426.119-4.277.119a32.784,32.784,0,0,1-4.277-.119,5.51,5.51,0,0,1-2.02-.356,4.172,4.172,0,0,1-2.02-2.02,5.51,5.51,0,0,1-.356-2.02c0-1.069-.119-1.426-.119-4.277A32.784,32.784,0,0,1,2.02,6.415,5.51,5.51,0,0,1,2.376,4.4a4.267,4.267,0,0,1,.832-1.188A2.009,2.009,0,0,1,4.4,2.376a5.51,5.51,0,0,1,2.02-.356A32.784,32.784,0,0,1,10.692,1.9m0-1.9A35.1,35.1,0,0,0,6.3.119,7.334,7.334,0,0,0,3.683.594a4.651,4.651,0,0,0-1.9,1.188,4.651,4.651,0,0,0-1.188,1.9A5.413,5.413,0,0,0,.119,6.3,35.1,35.1,0,0,0,0,10.692a35.1,35.1,0,0,0,.119,4.4A7.334,7.334,0,0,0,.594,17.7a4.651,4.651,0,0,0,1.188,1.9,4.651,4.651,0,0,0,1.9,1.188,7.334,7.334,0,0,0,2.614.475,35.1,35.1,0,0,0,4.4.119,35.1,35.1,0,0,0,4.4-.119A7.334,7.334,0,0,0,17.7,20.79,4.984,4.984,0,0,0,20.79,17.7a7.334,7.334,0,0,0,.475-2.614c0-1.188.119-1.544.119-4.4a35.1,35.1,0,0,0-.119-4.4,7.334,7.334,0,0,0-.475-2.614,4.651,4.651,0,0,0-1.188-1.9A4.651,4.651,0,0,0,17.7.594,7.334,7.334,0,0,0,15.088.119,35.1,35.1,0,0,0,10.692,0m0,5.227a5.377,5.377,0,0,0-5.465,5.465,5.465,5.465,0,1,0,5.465-5.465m0,9.029a3.5,3.5,0,0,1-3.564-3.564,3.5,3.5,0,0,1,3.564-3.564,3.5,3.5,0,0,1,3.564,3.564,3.5,3.5,0,0,1-3.564,3.564m5.7-10.573A1.307,1.307,0,1,0,17.7,4.99a1.318,1.318,0,0,0-1.307-1.307" transform="translate(-0.001)"/>
</svg>
