<svg xmlns="http://www.w3.org/2000/svg" viewBox="0 0 39.727 39.727">
  <defs>
    <style>
      .cls-1 {
        fill: #fff;
      }

      .cls-2 {
        fill: none;
        stroke: #fff;
        stroke-width: 2px;
      }
    </style>
  </defs>
  <g id="Group_1869" data-name="Group 1869" transform="translate(-586 -974)">
    <g id="coin-icon" transform="translate(586 974)">
      <g id="Group_1822" data-name="Group 1822">
        <g id="Group_1821" data-name="Group 1821">
          <path id="Path_2478" data-name="Path 2478" class="cls-1" d="M19.866,39.727v0A19.863,19.863,0,1,1,39.727,19.863,19.887,19.887,0,0,1,19.864,39.727Zm0-37.818a17.954,17.954,0,1,0,0,35.909h0a17.954,17.954,0,0,0,0-35.909Z"/>
          <g id="Group_1820" data-name="Group 1820" transform="translate(13.319 5.632)">
            <path id="Path_2479" data-name="Path 2479" class="cls-1" d="M211.721,153.451a6.372,6.372,0,0,1-6.545-6.167.954.954,0,0,1,1.909,0,4.653,4.653,0,1,0,4.637-4.258,6.178,6.178,0,1,1,0-12.334,6.7,6.7,0,0,1,5.011,2.2.954.954,0,1,1-1.425,1.27,4.789,4.789,0,0,0-3.586-1.561,4.274,4.274,0,1,0,0,8.516,6.178,6.178,0,1,1,0,12.334Z" transform="translate(-205.176 -127.84)"/>
            <path id="Path_2480" data-name="Path 2480" class="cls-1" d="M289.566,115.222a.954.954,0,0,1-.954-.954V87.713a.954.954,0,1,1,1.909,0v26.554A.954.954,0,0,1,289.566,115.222Z" transform="translate(-283.196 -86.759)"/>
          </g>
        </g>
      </g>
    </g>
    <path id="Path_2481" data-name="Path 2481" class="cls-2" d="M0,13.155,34.532,0" transform="translate(588.733 986.6)"/>
  </g>
</svg>
