<svg xmlns="http://www.w3.org/2000/svg" viewBox="0 0 38 36.174">
  <defs>
    <style>
      .cls-1 {
        fill: #004c9b;
      }
    </style>
  </defs>
  <g id="money" transform="translate(199 -182.386)">
    <g id="Group_1816" data-name="Group 1816" transform="translate(-199 182.384)">
      <g id="Group_1815" data-name="Group 1815">
        <path id="Path_2468" data-name="Path 2468" class="cls-1" d="M152.315,81.138h1.954a.557.557,0,0,0,0-1.113h-.932V79.3a.557.557,0,0,0-1.113,0v.73a1.579,1.579,0,0,0,.091,3.155h.931a.466.466,0,0,1,0,.933h-1.954a.557.557,0,0,0,0,1.113h.932v.725a.557.557,0,0,0,1.113,0v-.73a1.579,1.579,0,0,0-.091-3.155h-.931a.466.466,0,1,1,0-.933Z" transform="translate(-139.548 -73.812)"/>
        <path id="Path_2469" data-name="Path 2469" class="cls-1" d="M230.023,310.279h1.954a.557.557,0,1,0,0-1.113h-.932v-.725a.557.557,0,0,0-1.113,0v.73a1.579,1.579,0,0,0,.091,3.155h.931a.466.466,0,1,1,0,.933H229a.557.557,0,0,0,0,1.113h.932v.725a.557.557,0,1,0,1.113,0v-.73a1.579,1.579,0,0,0-.091-3.155h-.931a.466.466,0,1,1,0-.933Z" transform="translate(-211.488 -285.947)"/>
        <path id="Path_2470" data-name="Path 2470" class="cls-1" d="M66.481,256.473a4.972,4.972,0,0,1-1.291-1.291,1.044,1.044,0,0,0-.862-.451H36.58a1.044,1.044,0,0,0-.862.451,4.972,4.972,0,0,1-1.291,1.291,1.044,1.044,0,0,0-.451.862v10.451a1.044,1.044,0,0,0,.451.862,4.972,4.972,0,0,1,1.291,1.291,1.044,1.044,0,0,0,.862.451H64.328a1.044,1.044,0,0,0,.862-.451,4.972,4.972,0,0,1,1.291-1.291,1.044,1.044,0,0,0,.451-.862V257.335A1.045,1.045,0,0,0,66.481,256.473Zm-.662,11.279a6.081,6.081,0,0,0-1.525,1.525H36.614a6.082,6.082,0,0,0-1.525-1.525V257.369a6.08,6.08,0,0,0,1.525-1.525H64.295a6.08,6.08,0,0,0,1.525,1.525Z" transform="translate(-31.454 -236.739)"/>
        <path id="Path_2471" data-name="Path 2471" class="cls-1" d="M74.541,316.3a3.26,3.26,0,1,0,3.26,3.26A3.263,3.263,0,0,0,74.541,316.3Zm0,5.406a2.146,2.146,0,1,1,2.146-2.146A2.149,2.149,0,0,1,74.541,321.711Z" transform="translate(-65.991 -293.743)"/>
        <path id="Path_2472" data-name="Path 2472" class="cls-1" d="M35.5,27.778H33.55a8.816,8.816,0,0,0-8.689-10.3,8.767,8.767,0,0,0-3.337.656,8.816,8.816,0,0,0-15.187-2.5.557.557,0,1,0,.87.694,7.7,7.7,0,0,1,13.309,2.3,8.842,8.842,0,0,0-1.024.681,6.518,6.518,0,1,0-3.418,7.691q.031.395.1.785H9.357a7.71,7.71,0,0,1-3.349-9.33.557.557,0,0,0-1.044-.387,8.823,8.823,0,0,0,2.49,9.717H2.5a2.5,2.5,0,0,0-2.5,2.5v15.7a2.5,2.5,0,0,0,2.5,2.5h33a2.5,2.5,0,0,0,2.5-2.5v-15.7A2.5,2.5,0,0,0,35.5,27.778ZM24.861,18.586a7.705,7.705,0,0,1,7.557,9.192H31.211a6.522,6.522,0,1,0-12.7,0H17.3a7.705,7.705,0,0,1,7.557-9.192Zm.465,7.145H24.4a.466.466,0,1,1,0-.933H26.35a.557.557,0,0,0,0-1.113h-.932V22.96a.557.557,0,0,0-1.113,0v.73a1.579,1.579,0,0,0,.091,3.155h.931a.466.466,0,1,1,0,.933H19.662a5.408,5.408,0,1,1,10.4,0H26.836a1.58,1.58,0,0,0-1.509-2.046Zm-9.263,0a5.408,5.408,0,1,1,2.486-5.588A8.786,8.786,0,0,0,16.064,25.729ZM35.5,47.367H2.5A1.388,1.388,0,0,1,1.113,45.98v-15.7A1.388,1.388,0,0,1,2.5,28.891h33a1.388,1.388,0,0,1,1.387,1.387v15.7h0A1.388,1.388,0,0,1,35.5,47.367Z" transform="translate(0 -12.307)"/>
        <path id="Path_2473" data-name="Path 2473" class="cls-1" d="M179.737,277.847A6.114,6.114,0,1,0,183,289.135a.557.557,0,0,0-.594-.941,5,5,0,1,1,1.64-1.687.557.557,0,1,0,.958.568,6.115,6.115,0,0,0-5.263-9.226Z" transform="translate(-160.737 -258.139)"/>
        <path id="Path_2474" data-name="Path 2474" class="cls-1" d="M356.141,316.3a3.26,3.26,0,1,0,3.26,3.26A3.263,3.263,0,0,0,356.141,316.3Zm0,5.406a2.146,2.146,0,1,1,2.146-2.146A2.149,2.149,0,0,1,356.141,321.711Z" transform="translate(-326.691 -293.743)"/>
      </g>
    </g>
  </g>
</svg>
