<svg xmlns="http://www.w3.org/2000/svg" viewBox="0 0 20.992 20.059">
  <defs>
    <style>
      .cls-1 {
        fill: #294d97;
      }
    </style>
  </defs>
  <path id="LinkedIn" class="cls-1" d="M20.993,21.857v7.761h-4.5V22.377c0-1.819-.651-3.061-2.279-3.061a2.462,2.462,0,0,0-2.309,1.646,3.079,3.079,0,0,0-.149,1.1v7.559h-4.5s.061-12.265,0-13.535h4.5V18c-.009.014-.021.03-.03.044h.03V18a4.469,4.469,0,0,1,4.056-2.237C18.773,15.765,20.993,17.7,20.993,21.857ZM2.547,9.558a2.345,2.345,0,1,0-.06,4.678h.03a2.346,2.346,0,1,0,.03-4.678ZM.267,29.618h4.5V16.083H.267Z" transform="translate(0 -9.559)"/>
</svg>
