<svg width="21" height="26" xmlns="http://www.w3.org/2000/svg"><g fill="#A6A6A6"><path d="M13.97 22H2.03C.91 22 0 21.055 0 19.892V2.108C0 .945.91 0 2.03 0h11.94C15.09 0 16 .945 16 2.108v17.784C15.995 21.055 15.085 22 13.97 22zm.605-19.887a.623.623 0 0 0-.61-.633H2.024a.623.623 0 0 0-.61.633v17.78c0 .349.273.633.61.633h11.94c.336 0 .61-.284.61-.634V2.113z"/><path d="M18.97 26H7.03C5.91 26 5 25.055 5 23.892a.72.72 0 0 1 .71-.737.72.72 0 0 1 .71.737c0 .35.274.634.61.634h11.94c.336 0 .61-.284.61-.634V6.108a.623.623 0 0 0-.61-.634.721.721 0 0 1-.71-.737.72.72 0 0 1 .71-.737C20.09 4 21 4.945 21 6.108v17.784C21 25.055 20.09 26 18.97 26z"/></g></svg>