<svg xmlns="http://www.w3.org/2000/svg" viewBox="0 0 46 46">
  <defs>
    <style>
      .cls-1, .cls-4 {
        fill: none;
      }

      .cls-1 {
        stroke: #fff;
        stroke-width: 2px;
      }

      .cls-2 {
        fill: #fff;
      }

      .cls-3 {
        stroke: none;
      }
    </style>
  </defs>
  <g id="Group_1875" data-name="Group 1875" transform="translate(-776 -4654)">
    <g id="Ellipse_309" data-name="Ellipse 309" class="cls-1" transform="translate(776 4654)">
      <circle class="cls-3" cx="23" cy="23" r="23"/>
      <circle class="cls-4" cx="23" cy="23" r="22"/>
    </g>
    <g id="_005-twitter-social-outlined-logo" data-name="005-twitter-social-outlined-logo" transform="translate(788.198 4668.131)">
      <g id="twitter" transform="translate(0 0)">
        <g id="Group_1861" data-name="Group 1861">
          <path id="Path_2524" data-name="Path 2524" class="cls-2" d="M24.013,58.1a.549.549,0,0,0-.64.013,2.023,2.023,0,0,1-.551.259,2.593,2.593,0,0,0,.746-1.7.55.55,0,0,0-.868-.407,4.824,4.824,0,0,1-2.628.907,5.212,5.212,0,0,0-8.717,4.441c-4.794-.119-8.683-4.638-8.722-4.685a.549.549,0,0,0-.894.078,5.128,5.128,0,0,0,.114,5.445.55.55,0,0,0-.81.475A4.979,4.979,0,0,0,3.019,67.2a.55.55,0,0,0-.317.671A4.912,4.912,0,0,0,6.21,71.3a7.37,7.37,0,0,1-4.215,1.155,8.682,8.682,0,0,1-1.35-.1.55.55,0,0,0-.426.981,12.727,12.727,0,0,0,7.619,2.277,14.866,14.866,0,0,0,2.864-.255A13.841,13.841,0,0,0,21.845,61.454C23.86,59.6,24.181,58.88,24.232,58.7A.549.549,0,0,0,24.013,58.1ZM20.92,60.811a.55.55,0,0,0-.179.445c.007.1.595,10.494-10.279,13.034a14.114,14.114,0,0,1-2.625.228,12.894,12.894,0,0,1-5.118-.986A7.4,7.4,0,0,0,7.848,71.31a.551.551,0,0,0-.411-.918,3.976,3.976,0,0,1-3.348-2.037,2.974,2.974,0,0,0,1.293-.212A.55.55,0,0,0,5.267,67.1a4.064,4.064,0,0,1-3.057-3.219,2.7,2.7,0,0,0,1.325.185.55.55,0,0,0,.276-.962c-.11-.093-2.485-2.157-1.453-4.858,1.383,1.4,5.148,4.71,9.687,4.454a.55.55,0,0,0,.5-.685,4.115,4.115,0,0,1,3.983-5.134,4.081,4.081,0,0,1,2.931,1.228.551.551,0,0,0,.383.164h.085a5.8,5.8,0,0,0,1.763-.283,8.044,8.044,0,0,1-.927.826.55.55,0,0,0,.379.983c.089-.007.48-.041.965-.128C21.8,59.986,21.415,60.362,20.92,60.811Z" transform="translate(0.001 -55.785)"/>
        </g>
      </g>
    </g>
  </g>
</svg>
