<svg xmlns="http://www.w3.org/2000/svg" viewBox="0 0 38.841 37.582">
  <defs>
    <style>
      .cls-1 {
        fill: #fff;
      }
    </style>
  </defs>
  <g id="piggy-bank" transform="translate(0 -7.98)">
    <g id="Group_1826" data-name="Group 1826" transform="translate(0 7.981)">
      <g id="Group_1825" data-name="Group 1825" transform="translate(0)">
        <path id="Path_2484" data-name="Path 2484" class="cls-1" d="M37.416,17.921l-.008-.008a.82.82,0,0,0-1.128.016.786.786,0,0,0,0,1.112,3.313,3.313,0,0,1-4.686,4.686.138.138,0,0,0-.039-.032,14.622,14.622,0,0,0-4.441-4.078,8.373,8.373,0,1,0-15.422-6.524,8.572,8.572,0,0,0-.647,2.729,7.017,7.017,0,0,0-2.027-.331,1.479,1.479,0,0,0-1.546,1.294,11.39,11.39,0,0,0,.166,2.453L7.8,20.784A14,14,0,0,0,4.236,25.06l-2.288.45A2.432,2.432,0,0,0,0,27.892v5.072a2.425,2.425,0,0,0,1.948,2.382l2.3.458a12.6,12.6,0,0,0,1.649,2.469,5.21,5.21,0,0,0,1.546,5.98,5.852,5.852,0,0,0,3.716,1.31A6.1,6.1,0,0,0,15.3,43.929l.552-.521a17.215,17.215,0,0,0,6.129-.189l.781.749a5.757,5.757,0,0,0,4,1.57h.189a5.861,5.861,0,0,0,4.086-1.806,5.246,5.246,0,0,0,.544-6.453A11.733,11.733,0,0,0,33.85,30.4v-.623a10.692,10.692,0,0,0-.915-3.621,4.891,4.891,0,0,0,4.481-8.236Zm-18.01-8.37A6.783,6.783,0,0,1,23.2,21.968c-.063.047-.126.142-.174.142h-7.21c-.032,0-.071-.047-.11-.079a6.81,6.81,0,0,1-3.084-5.214c-.016-.181-.016-.339-.016-.481A6.808,6.808,0,0,1,19.406,9.551ZM30.056,36.7a.884.884,0,0,0-.095,1.01.681.681,0,0,0,.079.126,3.693,3.693,0,0,1-.15,4.812,4.148,4.148,0,0,1-2.982,1.317h-.15a4.2,4.2,0,0,1-2.911-1.136l-1.026-.978a.934.934,0,0,0-.671-.26.716.716,0,0,0-.181.024,15.553,15.553,0,0,1-6.185.2.765.765,0,0,0-.134-.008.922.922,0,0,0-.671.26l-.773.734a4.505,4.505,0,0,1-2.879,1.2,4.32,4.32,0,0,1-2.911-.939,3.65,3.65,0,0,1-.962-4.433.863.863,0,0,0,.087-.671.793.793,0,0,0-.189-.371A11.466,11.466,0,0,1,5.506,34.85a.8.8,0,0,0-.15-.213.992.992,0,0,0-.56-.308l-2.54-.513a.853.853,0,0,1-.678-.836V27.892a.838.838,0,0,1,.678-.836L4.8,26.543a.992.992,0,0,0,.56-.308.762.762,0,0,0,.15-.205,12.353,12.353,0,0,1,3.558-4.244c.024-.024.047-.039.071-.063a.915.915,0,0,0,.268-.678.324.324,0,0,0-.008-.087L9.2,19.065c-.071-.607-.189-1.7-.174-2h.032a6.425,6.425,0,0,1,2.043.41,8.3,8.3,0,0,0,2.248,4.646H12.6a.789.789,0,1,0,0,1.578H26.269a.789.789,0,1,0,0-1.578h-.82a6.294,6.294,0,0,0,.915-1.128,12.884,12.884,0,0,1,4.355,4.291l.56,1.081a9.769,9.769,0,0,1,.986,3.5v.544h0A10.228,10.228,0,0,1,30.056,36.7Z" transform="translate(0 -7.981)"/>
      </g>
    </g>
    <g id="Group_1828" data-name="Group 1828" transform="translate(8.906 26.456)">
      <g id="Group_1827" data-name="Group 1827">
        <path id="Path_2485" data-name="Path 2485" class="cls-1" d="M114.919,242.181a2.019,2.019,0,1,0,2.019,2.019A2.018,2.018,0,0,0,114.919,242.181Zm0,2.469a.442.442,0,1,1,.442-.442A.431.431,0,0,1,114.919,244.65Z" transform="translate(-112.9 -242.181)"/>
      </g>
    </g>
    <g id="Group_1830" data-name="Group 1830" transform="translate(14.626 11.555)">
      <g id="Group_1829" data-name="Group 1829" transform="translate(0 0)">
        <path id="Path_2486" data-name="Path 2486" class="cls-1" d="M190.18,53.281a4.781,4.781,0,1,0,4.781,4.781A4.777,4.777,0,0,0,190.18,53.281Zm0,7.983a3.2,3.2,0,1,1,3.2-3.2A3.205,3.205,0,0,1,190.18,61.264Z" transform="translate(-185.4 -53.281)"/>
      </g>
    </g>
  </g>
</svg>
