<svg id="Layer_1" data-name="Layer 1" xmlns="http://www.w3.org/2000/svg" viewBox="0 0 406.08 71.41"><defs><style>.cls-1{fill:#ffe000;}.cls-2{fill:#2a4798;}</style></defs><title>solar_volt_hori_cmyk(1)</title><path class="cls-1" d="M95,9.39c7.89,0,11.95,4.72,11.95,13V24H99.29V21.85c0-3.69-1.48-5.09-4.06-5.09s-4,1.4-4,5.09C91.18,32.47,107,34.45,107,49.2c0,8.27-4.13,13-12.09,13s-12.09-4.71-12.09-13V46h7.66v3.69c0,3.69,1.63,5,4.21,5s4.2-1.32,4.2-5c0-10.61-15.85-12.61-15.85-27.36C83.07,14.11,87.12,9.39,95,9.39Z" transform="translate(-0.67)"/><path class="cls-1" d="M122.29,22.36c0-8.25,4.35-13,12.31-13s12.32,4.72,12.32,13V49.2c0,8.27-4.35,13-12.32,13s-12.31-4.71-12.31-13Zm8.11,27.36c0,3.69,1.63,5.09,4.2,5.09s4.21-1.4,4.21-5.09V21.85c0-3.69-1.62-5.09-4.21-5.09s-4.2,1.4-4.2,5.09Z" transform="translate(-0.67)"/><path class="cls-1" d="M160.07,9.39h8.11V54.64h13.35v7.54H160.07Z" transform="translate(-0.67)"/><path class="cls-1" d="M220.85,62.18h-8.19l-1.4-9.58h-10l-1.4,9.58h-7.45l8.26-52.79h11.87ZM202.34,45.44h7.81l-3.9-26.71Z" transform="translate(-0.67)"/><path class="cls-1" d="M250.67,62.18c-.44-1.36-.74-2.19-.74-6.49v-8.3c0-4.9-1.62-6.71-5.31-6.71h-2.8v21.5h-8.11V9.38H246c8.41,0,12,4,12,12.15v4.14c0,5.44-1.69,9-5.31,10.71,4.06,1.74,5.38,5.74,5.38,11.24v8.15a15.72,15.72,0,0,0,.89,6.41Zm-8.85-45.26V33.14H245c3,0,4.87-1.36,4.87-5.58V22.35c0-3.77-1.26-5.43-4.13-5.43Z" transform="translate(-0.67)"/><path class="cls-2" d="M283.56,52.45l6.2-43.07h7.45l-8,52.8H277.15l-8-52.8h8.18Z" transform="translate(-0.67)"/><path class="cls-2" d="M310.55,22.36c0-8.25,4.35-13,12.32-13s12.31,4.72,12.31,13V49.2c0,8.27-4.35,13-12.31,13s-12.32-4.71-12.32-13Zm8.11,27.36c0,3.69,1.62,5.09,4.21,5.09s4.2-1.4,4.2-5.09V21.85c0-3.69-1.62-5.09-4.2-5.09s-4.21,1.4-4.21,5.09Z" transform="translate(-0.67)"/><path class="cls-2" d="M351.8,9.39h8.11V54.64h13.35v7.54H351.8Z" transform="translate(-0.67)"/><path class="cls-2" d="M381.68,9.39h25.07v7.53h-8.48V62.18h-8.11V16.92h-8.48Z" transform="translate(-0.67)"/><path class="cls-1" d="M28,3.44H44.6a3.72,3.72,0,0,1,3.72,3.72V23.77a3.72,3.72,0,0,1-3.72,3.72H28a3.72,3.72,0,0,1-3.72-3.72V7.16A3.73,3.73,0,0,1,28,3.44Z" transform="translate(-0.97 30.19) rotate(-45)"/><polygon class="cls-2" points="17.01 20.47 13.61 20.47 0 34.08 0 37.48 13.61 51.09 17.01 51.09 30.61 37.48 30.61 34.08 17.01 20.47"/><polygon class="cls-2" points="37.33 40.8 33.93 40.8 20.32 54.4 20.32 57.8 33.93 71.41 37.33 71.41 50.94 57.8 50.94 54.4 37.33 40.8"/><polygon class="cls-2" points="57.65 20.48 54.25 20.48 40.64 34.08 40.64 37.49 54.25 51.09 57.65 51.09 71.26 37.49 71.26 34.09 57.65 20.48"/><polygon class="cls-2" points="17.01 20.47 13.61 20.47 0 34.08 0 37.48 13.61 51.09 17.01 51.09 30.61 37.48 30.61 34.08 17.01 20.47"/><polygon class="cls-2" points="37.33 40.8 33.93 40.8 20.32 54.4 20.32 57.8 33.93 71.41 37.33 71.41 50.94 57.8 50.94 54.4 37.33 40.8"/><polygon class="cls-2" points="57.65 20.48 54.25 20.48 40.64 34.08 40.64 37.49 54.25 51.09 57.65 51.09 71.26 37.49 71.26 34.09 57.65 20.48"/></svg>