<?xml version="1.0" encoding="UTF-8" standalone="no"?>
<svg
   xmlns:dc="http://purl.org/dc/elements/1.1/"
   xmlns:cc="http://creativecommons.org/ns#"
   xmlns:rdf="http://www.w3.org/1999/02/22-rdf-syntax-ns#"
   xmlns:svg="http://www.w3.org/2000/svg"
   xmlns="http://www.w3.org/2000/svg"
   xmlns:sodipodi="http://sodipodi.sourceforge.net/DTD/sodipodi-0.dtd"
   xmlns:inkscape="http://www.inkscape.org/namespaces/inkscape"
   id="Layer_1"
   data-name="Layer 1"
   viewBox="0 0 406.07999 71.410027"
   version="1.1"
   sodipodi:docname="logo-yellow.svg"
   width="406.07999"
   height="71.410027"
   inkscape:version="0.92.1 r15371">
  <metadata
     id="metadata4563">
    <rdf:RDF>
      <cc:Work
         rdf:about="">
        <dc:format>image/svg+xml</dc:format>
        <dc:type
           rdf:resource="http://purl.org/dc/dcmitype/StillImage" />
        <dc:title>solar_volt_hori_amarelo_cmyk</dc:title>
      </cc:Work>
    </rdf:RDF>
  </metadata>
  <sodipodi:namedview
     pagecolor="#ffffff"
     bordercolor="#666666"
     borderopacity="1"
     objecttolerance="10"
     gridtolerance="10"
     guidetolerance="10"
     inkscape:pageopacity="0"
     inkscape:pageshadow="2"
     inkscape:window-width="1600"
     inkscape:window-height="837"
     id="namedview4561"
     showgrid="false"
     fit-margin-top="0"
     fit-margin-left="0"
     fit-margin-right="0"
     fit-margin-bottom="0"
     inkscape:zoom="2.5301566"
     inkscape:cx="204.20787"
     inkscape:cy="6.6730472"
     inkscape:window-x="-8"
     inkscape:window-y="-8"
     inkscape:window-maximized="1"
     inkscape:current-layer="Layer_1" />
  <defs
     id="defs4530">
    <style
       id="style4528">.cls-1{fill:#ffe000;}</style>
  </defs>
  <title
     id="title4532">solar_volt_hori_amarelo_cmyk</title>
  <path
     class="cls-1"
     d="m 94.34,9.3900237 c 7.89,0 12,4.7200003 12,13.0000003 v 1.63 h -7.67 v -2.17 c 0,-3.69 -1.47,-5.09 -4.06,-5.09 -2.59,0 -4,1.4 -4,5.09 0,10.62 15.85,12.6 15.85,27.35 0,8.27 -4.13,13 -12.09,13 -7.96,0 -12.09,-4.71 -12.09,-13 v -3.17 h 7.66 v 3.69 c 0,3.69 1.63,5 4.21,5 2.58,0 4.2,-1.32 4.2,-5 0,-10.61 -15.85,-12.61 -15.85,-27.36 -0.1,-8.25 3.95,-12.9700003 11.84,-12.9700003 z"
     id="path4534"
     inkscape:connector-curvature="0"
     style="fill:#ffe000" />
  <path
     class="cls-1"
     d="m 121.62,22.360024 c 0,-8.25 4.35,-13.0000003 12.31,-13.0000003 7.96,0 12.32,4.7200003 12.32,13.0000003 v 26.84 c 0,8.27 -4.35,13 -12.32,13 -7.97,0 -12.31,-4.71 -12.31,-13 z m 8.09,27.36 c 0,3.69 1.63,5.09 4.2,5.09 2.57,0 4.21,-1.4 4.21,-5.09 v -27.87 c 0,-3.69 -1.62,-5.09 -4.21,-5.09 -2.59,0 -4.2,1.4 -4.2,5.09 z"
     id="path4536"
     inkscape:connector-curvature="0"
     style="fill:#ffe000" />
  <path
     class="cls-1"
     d="m 159.41,9.4000237 h 8.1 V 54.640024 h 13.35 v 7.54 h -21.45 z"
     id="path4538"
     inkscape:connector-curvature="0"
     style="fill:#ffe000" />
  <path
     class="cls-1"
     d="m 220.18,62.180024 h -8.19 l -1.4,-9.54 h -10 l -1.4,9.59 h -7.45 l 8.27,-52.7900003 h 11.87 z m -18.47,-16.75 h 7.81 l -3.9,-26.7 z"
     id="path4540"
     inkscape:connector-curvature="0"
     style="fill:#ffe000" />
  <path
     class="cls-1"
     d="m 250,62.180024 c -0.44,-1.36 -0.74,-2.2 -0.74,-6.49 v -8.3 c 0,-4.9 -1.62,-6.71 -5.3,-6.71 h -2.81 v 21.5 h -8.11 V 9.3800237 h 12.24 c 8.41,0 12,4.0000003 12,12.1500003 v 4.11 c 0,5.43 -1.69,9 -5.31,10.71 4.06,1.74 5.39,5.73 5.39,11.24 v 8.14 a 16,16 0 0 0 0.88,6.42 z m -8.85,-45.26 v 16.22 h 3.17 c 3,0 4.87,-1.36 4.87,-5.58 v -5.21 c 0,-3.77 -1.26,-5.43 -4.13,-5.43 z"
     id="path4542"
     inkscape:connector-curvature="0"
     style="fill:#ffe000" />
  <path
     class="cls-1"
     d="m 282.9,52.460024 6.19,-43.0000003 h 7.45 l -8,52.7500003 h -12.06 l -8,-52.7500003 h 8.23 z"
     id="path4544"
     inkscape:connector-curvature="0"
     style="fill:#ffe000" />
  <path
     class="cls-1"
     d="m 309.88,22.360024 c 0,-8.25 4.35,-13.0000003 12.32,-13.0000003 7.97,0 12.31,4.7200003 12.31,13.0000003 v 26.84 c 0,8.27 -4.35,13 -12.31,13 -7.96,0 -12.32,-4.71 -12.32,-13 z m 8.11,27.36 c 0,3.69 1.62,5.09 4.21,5.09 2.59,0 4.2,-1.4 4.2,-5.09 v -27.87 c 0,-3.69 -1.62,-5.09 -4.2,-5.09 -2.58,0 -4.21,1.4 -4.21,5.09 z"
     id="path4546"
     inkscape:connector-curvature="0"
     style="fill:#ffe000" />
  <path
     class="cls-1"
     d="m 351.14,9.4000237 h 8.11 V 54.640024 h 13.34 v 7.54 h -21.45 z"
     id="path4548"
     inkscape:connector-curvature="0"
     style="fill:#ffe000" />
  <path
     class="cls-1"
     d="m 381.01,9.3900237 h 25.07 v 7.5300003 h -8.48 v 45.26 h -8.11 v -45.26 h -8.48 z"
     id="path4550"
     inkscape:connector-curvature="0"
     style="fill:#ffe000" />
  <path
     class="cls-1"
     d="M 35.62,2.3655087e-5 A 3.7,3.7 0 0 0 32.99,1.0900237 L 21.25,12.830024 a 3.74,3.74 0 0 0 0,5.27 l 11.74,11.74 a 3.75,3.75 0 0 0 5.27,0 l 11.74,-11.75 a 3.72,3.72 0 0 0 0,-5.26 L 38.26,1.0900237 A 3.71,3.71 0 0 0 35.62,2.3655087e-5 Z"
     id="path4552"
     inkscape:connector-curvature="0"
     style="fill:#ffe000" />
  <path
     class="cls-1"
     d="m 16.59,21.470024 13,13 v 2.58 l -13,13 h -2.57 l -13,-13 v -2.56 l 13,-13 h 2.57 m 0.42,-1 H 13.6 l -13.6,13.59 v 3.4 l 13.6,13.61 h 3.41 l 13.6,-13.61 v -3.4 l -13.6,-13.61 z"
     id="path4554"
     inkscape:connector-curvature="0"
     style="fill:#ffe000" />
  <path
     class="cls-1"
     d="m 36.92,41.800024 13,13 v 2.57 l -13,13 h -2.58 l -13,-13 v -2.55 l 13,-13 h 2.58 m 0.41,-1 h -3.4 l -13.61,13.58 v 3.41 l 13.61,13.6 h 3.4 l 13.61,-13.6 v -3.41 l -13.61,-13.6 z"
     id="path4556"
     inkscape:connector-curvature="0"
     style="fill:#ffe000" />
  <path
     class="cls-1"
     d="m 57.23,21.480024 13,13 v 2.57 l -13,13 h -2.52 l -13,-13 v -2.55 l 13,-13 h 2.57 m 0.42,-1 h -3.4 l -13.66,13.58 v 3.41 l 13.61,13.61 h 3.4 l 13.6,-13.6 v -3.4 l -13.6,-13.62 z"
     id="path4558"
     inkscape:connector-curvature="0"
     style="fill:#ffe000" />
</svg>
