<svg id="Layer_1" data-name="Layer 1" xmlns="http://www.w3.org/2000/svg" viewBox="0 0 406.08 71.41"><defs><style>.cls-1{fill:#fff;}</style></defs><title>solar_volt_hori_neg</title><path class="cls-1" d="M307.63,271.25c7.89,0,11.95,4.72,11.95,13v1.63h-7.67v-2.14c0-3.69-1.47-5.09-4.06-5.09s-4.05,1.4-4.05,5.09c0,10.62,15.85,12.6,15.85,27.35,0,8.27-4.13,13-12.09,13s-12.09-4.71-12.09-13v-3.17h7.66v3.69c0,3.69,1.63,5,4.21,5s4.2-1.32,4.2-5c0-10.61-15.85-12.61-15.85-27.36C295.69,276,299.74,271.25,307.63,271.25Z" transform="translate(-213.29 -261.86)"/><path class="cls-1" d="M334.91,284.22c0-8.25,4.35-13,12.31-13s12.32,4.72,12.32,13v26.84c0,8.27-4.35,13-12.32,13s-12.31-4.71-12.31-13ZM343,311.58c0,3.69,1.63,5.09,4.2,5.09s4.21-1.4,4.21-5.09V283.71c0-3.69-1.62-5.09-4.21-5.09s-4.2,1.4-4.2,5.09Z" transform="translate(-213.29 -261.86)"/><path class="cls-1" d="M372.7,271.25h8.1V316.5h13.35V324H372.7Z" transform="translate(-213.29 -261.86)"/><path class="cls-1" d="M433.47,324h-8.19l-1.4-9.58h-10l-1.4,9.58h-7.45l8.27-52.79h11.87ZM415,307.3h7.81l-3.9-26.7Z" transform="translate(-213.29 -261.86)"/><path class="cls-1" d="M463.29,324c-.44-1.35-.74-2.19-.74-6.48v-8.3c0-4.91-1.62-6.72-5.3-6.72h-2.81V324h-8.11V271.25h12.24c8.41,0,12,4,12,12.14v4.15c0,5.43-1.69,9-5.31,10.71,4.06,1.74,5.39,5.73,5.39,11.24v8.14a15.9,15.9,0,0,0,.88,6.41Zm-8.85-45.25V295h3.17c3,0,4.87-1.36,4.87-5.59v-5.2c0-3.77-1.26-5.43-4.13-5.43Z" transform="translate(-213.29 -261.86)"/><path class="cls-1" d="M496.19,314.32l6.19-43.07h7.45l-8,52.8H489.77l-8-52.8H490Z" transform="translate(-213.29 -261.86)"/><path class="cls-1" d="M523.17,284.23c0-8.26,4.35-13,12.32-13s12.31,4.72,12.31,13v26.84c0,8.26-4.35,13-12.31,13s-12.32-4.71-12.32-13Zm8.11,27.36c0,3.69,1.62,5.08,4.21,5.08s4.2-1.39,4.2-5.08V283.71c0-3.68-1.62-5.09-4.2-5.09s-4.21,1.41-4.21,5.09Z" transform="translate(-213.29 -261.86)"/><path class="cls-1" d="M564.43,271.25h8.11V316.5h13.34v7.55H564.43Z" transform="translate(-213.29 -261.86)"/><path class="cls-1" d="M594.3,271.25h25.07v7.54h-8.48v45.26h-8.11V278.79H594.3Z" transform="translate(-213.29 -261.86)"/><path class="cls-1" d="M248.91,262.86h0a2.71,2.71,0,0,1,1.93.79l11.74,11.75a2.72,2.72,0,0,1,0,3.85L250.84,291a2.74,2.74,0,0,1-3.85,0l-11.74-11.74a2.71,2.71,0,0,1,0-3.85L247,263.65a2.69,2.69,0,0,1,1.92-.79m0-1a3.7,3.7,0,0,0-2.63,1.09l-11.74,11.74a3.74,3.74,0,0,0,0,5.27l11.74,11.74a3.75,3.75,0,0,0,5.27,0L263.29,280a3.72,3.72,0,0,0,0-5.26L251.55,263a3.71,3.71,0,0,0-2.64-1.09Z" transform="translate(-213.29 -261.86)"/><polygon class="cls-1" points="17.01 20.47 13.61 20.47 0 34.08 0 37.48 13.61 51.09 17.01 51.09 30.61 37.48 30.61 34.08 17.01 20.47"/><polygon class="cls-1" points="37.33 40.8 33.93 40.8 20.32 54.4 20.32 57.8 33.93 71.41 37.33 71.41 50.94 57.8 50.94 54.4 37.33 40.8"/><polygon class="cls-1" points="57.65 20.48 54.25 20.48 40.64 34.08 40.64 37.49 54.25 51.09 57.65 51.09 71.26 37.49 71.26 34.08 57.65 20.48"/><polygon class="cls-1" points="17.01 20.47 13.61 20.47 0 34.08 0 37.48 13.61 51.09 17.01 51.09 30.61 37.48 30.61 34.08 17.01 20.47"/><polygon class="cls-1" points="37.33 40.8 33.93 40.8 20.32 54.4 20.32 57.8 33.93 71.41 37.33 71.41 50.94 57.8 50.94 54.4 37.33 40.8"/><polygon class="cls-1" points="57.65 20.48 54.25 20.48 40.64 34.08 40.64 37.49 54.25 51.09 57.65 51.09 71.26 37.49 71.26 34.08 57.65 20.48"/></svg>