<?xml version="1.0" standalone="no"?>
<!DOCTYPE svg PUBLIC "-//W3C//DTD SVG 20010904//EN"
 "http://www.w3.org/TR/2001/REC-SVG-20010904/DTD/svg10.dtd">
<svg version="1.0" xmlns="http://www.w3.org/2000/svg"
 width="512.000000pt" height="512.000000pt" viewBox="0 0 512.000000 512.000000"
 preserveAspectRatio="xMidYMid meet">
<metadata>
Created by potrace 1.11, written by Peter Selinger 2001-2013
</metadata>
<g transform="translate(0.000000,512.000000) scale(0.100000,-0.100000)"
fill="#000000" stroke="none">
<path d="M2460 5102 c-48 -18 -77 -45 -659 -622 -342 -338 -351 -351 -352
-466 -1 -117 -4 -113 494 -606 485 -481 504 -496 602 -498 129 -3 128 -5 631
501 495 498 488 490 488 608 -1 113 -3 115 -492 603 -303 302 -461 453 -491
468 -59 30 -161 35 -221 12z"/>
<path d="M489 3167 l-489 -487 0 -125 0 -124 486 -485 c268 -267 490 -487 493
-487 3 -1 58 -2 121 -4 l115 -2 493 491 492 491 0 120 0 120 -490 490 -490
489 -121 1 -120 0 -490 -488z"/>
<path d="M3893 3649 c-10 -4 -235 -225 -500 -491 l-481 -483 0 -122 1 -121
488 -488 488 -488 126 -1 126 -1 490 489 489 488 0 124 0 125 -487 486 -488
487 -117 2 c-64 0 -125 -2 -135 -6z"/>
<path d="M1942 1706 l-489 -491 2 -115 c2 -63 3 -118 4 -122 0 -4 220 -225
488 -492 l486 -486 124 0 123 0 489 488 488 487 1 121 0 122 -483 483 c-266
265 -490 486 -497 490 -7 3 -65 6 -130 6 l-116 0 -490 -491z"/>
</g>
</svg>
